<svg id="Layer_3" enable-background="new 0 0 64 64" height="512" viewBox="0 0 64 64" width="512" xmlns="http://www.w3.org/2000/svg"><g><path d="m21 9.582c-1.864.925-3.599 2.077-5.169 3.418h5.169z"/><path d="m13 21v-5.17c-1.341 1.571-2.494 3.306-3.419 5.17z"/><path d="m15 15h6v6h-6z"/><path d="m7.186 29h5.814v-6h-4.3c-.743 1.903-1.263 3.913-1.514 6z"/><path d="m15 23v6h3c0-2.306.879-4.406 2.311-6z"/><path d="m15 35v6h6v-5.318c-.241-.217-.474-.442-.689-.682z"/><path d="m13 48.17v-5.17h-3.419c.925 1.864 2.078 3.599 3.419 5.17z"/><path d="m21 54.418v-3.418h-5.169c1.57 1.341 3.305 2.494 5.169 3.418z"/><path d="m8.7 41h4.3v-6h-5.814c.251 2.087.771 4.097 1.514 6z"/><path d="m15 43h6v6h-6z"/><path d="m55.3 23h-4.3v6h5.814c-.252-2.087-.771-4.097-1.514-6z"/><path d="m51 15.83v5.17h3.419c-.925-1.864-2.078-3.599-3.419-5.17z"/><path d="m46 29h3v-6h-5.311c1.432 1.594 2.311 3.694 2.311 6z"/><path d="m43 15h6v6h-6z"/><path d="m29 7.187c-2.087.252-4.097.771-6 1.515v4.298h6z"/><path d="m29 20.247v-5.247h-6v5.95c1.207-.602 2.562-.95 4-.95.685 0 1.349.099 2 .247z"/><path d="m41 8.701c-1.903-.744-3.913-1.263-6-1.515v5.814h6z"/><path d="m41 20.95v-5.95h-6v5.247c.651-.148 1.315-.247 2-.247 1.438 0 2.793.347 4 .95z"/><path d="m43 9.582v3.418h5.169c-1.57-1.341-3.305-2.494-5.169-3.418z"/><path d="m43 54.419c1.864-.925 3.599-2.078 5.17-3.419h-5.17z"/><path d="m43 35.71v5.29h6v-6h-5.283c-.224.25-.465.486-.717.71z"/><path d="m43 43h6v6h-6z"/><path d="m37 22c-1.605 0-3.118.533-4.374 1.541-.365.293-.887.293-1.252 0-1.256-1.008-2.769-1.541-4.374-1.541-3.859 0-7 3.141-7 7 0 2.513 1.362 4.846 3.556 6.089.276.157.462.436.5.751.42 3.512 3.405 6.16 6.944 6.16 3.28 0 6.083-2.233 6.816-5.433.086-.374.377-.665.751-.751 3.2-.733 5.433-3.536 5.433-6.816 0-3.859-3.141-7-7-7zm-13.293 9.707-1.414-1.414 2-2 1.414 1.414zm7.586 9-2-2 1.414-1.414 2 2zm4.707-6.707c0 .553-.447 1-1 1h-6c-.553 0-1-.447-1-1v-6c0-.553.447-1 1-1h6c.553 0 1 .447 1 1zm4.293-5.293-2-2 1.414-1.414 2 2z"/><path d="m32 3c-15.99 0-29 13.01-29 29s13.01 29 29 29 29-13.01 29-29-13.01-29-29-29zm2.076 55.913c-.025.002-.051.003-.076.003-.251 0-.494-.095-.68-.267-.204-.189-.32-.455-.32-.733v-14.143c-.645.146-1.313.227-2 .227v13.916c0 .278-.116.544-.32.733-.186.172-.429.267-.68.267-.025 0-.051-.001-.076-.003-13.157-1.003-23.835-11.681-24.838-24.837-.022-.277.074-.552.264-.756s.455-.32.733-.32h12.877c-.317-.634-.56-1.303-.721-2h-12.156c-.278 0-.544-.116-.733-.32s-.285-.479-.264-.756c1.003-13.156 11.681-23.834 24.838-24.837.28-.019.552.074.756.264s.32.455.32.733v14.865c.342.171.679.355 1 .571.321-.216.658-.4 1-.571v-14.865c0-.278.116-.544.32-.733s.478-.287.756-.264c13.157 1.003 23.835 11.681 24.838 24.837.021.277-.074.552-.264.756s-.455.32-.733.32h-12.144c-.158.7-.396 1.37-.707 2h12.851c.278 0 .544.116.733.32s.285.479.264.756c-1.003 13.157-11.681 23.835-24.838 24.837z"/><path d="m30 29h4v4h-4z"/><path d="m51 48.17c1.341-1.571 2.494-3.306 3.419-5.17h-3.419z"/><path d="m51 41h4.3c.744-1.903 1.263-3.913 1.515-6h-5.815z"/><path d="m35 43.066v5.934h6v-6h-5.86c-.046.024-.094.043-.14.066z"/><path d="m23 55.299c1.903.744 3.913 1.263 6 1.515v-5.814h-6z"/><path d="m35 56.813c2.087-.252 4.097-.771 6-1.514v-4.299h-6z"/><path d="m37.71 41h3.29v-3.939c-.443.217-.907.402-1.392.547-.386 1.289-1.045 2.434-1.898 3.392z"/><path d="m23 43v6h6v-5.233c-.739-.169-1.445-.427-2.105-.767z"/><path d="m23 41h1.305c-.512-.571-.951-1.207-1.305-1.898z"/></g></svg>